<?xml version="1.0" encoding="UTF-8"?>
<svg id="Capa_1" data-name="Capa 1" xmlns="http://www.w3.org/2000/svg" viewBox="0 0 59.15 29.9">
  <defs>
    <style>
      .cls-1 {
        fill: #b5ebda;
      }
    </style>
  </defs>
  <path class="cls-1" d="M49.26,19.31h.41c.84,0,1.64-.16,2.38-.48.74-.32,1.38-.76,1.92-1.32.53-.56.96-1.21,1.27-1.96.31-.74.47-1.53.47-2.35v-5.59c0-.82-.16-1.6-.48-2.35-.32-.74-.76-1.39-1.3-1.94-.55-.55-1.19-.98-1.92-1.3-.73-.32-1.52-.48-2.36-.48H8.81c-.84,0-1.63.16-2.36.48-.73.32-1.37.76-1.92,1.3s-.98,1.19-1.3,1.92c-.32.73-.48,1.52-.48,2.36v17.21c0,.99.34,1.83,1.02,2.51.68.68,1.52,1.02,2.51,1.02h14.97c.84,0,1.64-.16,2.38-.48.74-.32,1.39-.76,1.94-1.3.55-.55.97-1.19,1.28-1.92.31-.73.47-1.52.47-2.36v-2.98h15.2l6.59,9.05h7.3l-7.15-9.05ZM49.04,13.57c-.22.22-.51.34-.86.34H15.03v4.77h5.96v2.87c0,.32-.11.6-.34.84-.22.24-.51.35-.86.35h-10.13c-.15,0-.29-.06-.41-.19-.12-.12-.19-.26-.19-.41v-13.78c0-.32.11-.6.34-.84.22-.24.51-.35.86-.35h36.32c.27,0,.57.01.89.04.32.03.63.08.91.17.29.09.52.21.71.37.19.16.28.37.28.61v4.36c0,.35-.11.63-.34.86Z"/>
</svg>